<mxfile host="app.diagrams.net" modified="2021-11-15T22:40:46.886Z" agent="5.0 (Macintosh; Intel Mac OS X 10_15_7) AppleWebKit/537.36 (KHTML, like Gecko) Chrome/95.0.4638.69 Safari/537.36" etag="-wEax3kqX9FetVxj83g2" version="15.5.9" type="github">
  <diagram id="eVK-DGS7VI0HJCnRYztG" name="Page-1">
    <mxGraphModel dx="786" dy="1644" grid="1" gridSize="10" guides="1" tooltips="1" connect="1" arrows="1" fold="1" page="1" pageScale="1" pageWidth="827" pageHeight="1169" math="0" shadow="0">
      <root>
        <mxCell id="0" />
        <mxCell id="1" parent="0" />
        <mxCell id="qB89F5kkttFrM0SvqKJG-16" style="edgeStyle=orthogonalEdgeStyle;rounded=0;orthogonalLoop=1;jettySize=auto;html=1;entryX=0;entryY=0;entryDx=30;entryDy=0;entryPerimeter=0;" edge="1" parent="1" source="qB89F5kkttFrM0SvqKJG-13" target="qB89F5kkttFrM0SvqKJG-15">
          <mxGeometry relative="1" as="geometry" />
        </mxCell>
        <mxCell id="qB89F5kkttFrM0SvqKJG-18" style="edgeStyle=orthogonalEdgeStyle;rounded=0;orthogonalLoop=1;jettySize=auto;html=1;entryX=0.5;entryY=0;entryDx=0;entryDy=0;entryPerimeter=0;" edge="1" parent="1" source="qB89F5kkttFrM0SvqKJG-13" target="qB89F5kkttFrM0SvqKJG-17">
          <mxGeometry relative="1" as="geometry">
            <Array as="points">
              <mxPoint x="480" y="310" />
            </Array>
          </mxGeometry>
        </mxCell>
        <mxCell id="qB89F5kkttFrM0SvqKJG-20" style="edgeStyle=orthogonalEdgeStyle;rounded=0;orthogonalLoop=1;jettySize=auto;html=1;entryX=0;entryY=0;entryDx=25;entryDy=0;entryPerimeter=0;" edge="1" parent="1" source="qB89F5kkttFrM0SvqKJG-13" target="qB89F5kkttFrM0SvqKJG-19">
          <mxGeometry relative="1" as="geometry" />
        </mxCell>
        <mxCell id="qB89F5kkttFrM0SvqKJG-23" style="edgeStyle=orthogonalEdgeStyle;rounded=0;orthogonalLoop=1;jettySize=auto;html=1;" edge="1" parent="1" target="qB89F5kkttFrM0SvqKJG-21">
          <mxGeometry relative="1" as="geometry">
            <mxPoint x="480" y="230" as="sourcePoint" />
            <Array as="points">
              <mxPoint x="480" y="210" />
              <mxPoint x="340" y="210" />
              <mxPoint x="340" y="355" />
            </Array>
          </mxGeometry>
        </mxCell>
        <mxCell id="qB89F5kkttFrM0SvqKJG-13" value="Syntax Tree&lt;br&gt;(aka AST)&lt;br&gt;" style="rounded=1;whiteSpace=wrap;html=1;fillColor=#fff2cc;strokeColor=#d6b656;" vertex="1" parent="1">
          <mxGeometry x="350" y="-20" width="260" height="240" as="geometry" />
        </mxCell>
        <mxCell id="qB89F5kkttFrM0SvqKJG-8" style="edgeStyle=orthogonalEdgeStyle;rounded=0;orthogonalLoop=1;jettySize=auto;html=1;" edge="1" parent="1" source="qB89F5kkttFrM0SvqKJG-2">
          <mxGeometry relative="1" as="geometry">
            <mxPoint x="330" y="90" as="targetPoint" />
          </mxGeometry>
        </mxCell>
        <mxCell id="qB89F5kkttFrM0SvqKJG-2" value="// Script&lt;br&gt;7+3+5" style="shape=note;strokeWidth=2;fontSize=14;size=20;whiteSpace=wrap;html=1;fillColor=#fff2cc;strokeColor=#d6b656;fontColor=#666600;" vertex="1" parent="1">
          <mxGeometry x="160" y="20" width="90" height="140" as="geometry" />
        </mxCell>
        <mxCell id="qB89F5kkttFrM0SvqKJG-5" style="edgeStyle=orthogonalEdgeStyle;rounded=0;orthogonalLoop=1;jettySize=auto;html=1;entryX=1;entryY=0.5;entryDx=0;entryDy=0;" edge="1" parent="1" source="qB89F5kkttFrM0SvqKJG-3" target="qB89F5kkttFrM0SvqKJG-4">
          <mxGeometry relative="1" as="geometry">
            <Array as="points">
              <mxPoint x="430" y="5" />
              <mxPoint x="430" y="95" />
            </Array>
          </mxGeometry>
        </mxCell>
        <mxCell id="qB89F5kkttFrM0SvqKJG-6" style="edgeStyle=orthogonalEdgeStyle;rounded=0;orthogonalLoop=1;jettySize=auto;html=1;" edge="1" parent="1" source="qB89F5kkttFrM0SvqKJG-3">
          <mxGeometry relative="1" as="geometry">
            <mxPoint x="540" y="90" as="targetPoint" />
            <Array as="points">
              <mxPoint x="540" y="5" />
            </Array>
          </mxGeometry>
        </mxCell>
        <mxCell id="qB89F5kkttFrM0SvqKJG-3" value="+" style="ellipse;whiteSpace=wrap;html=1;" vertex="1" parent="1">
          <mxGeometry x="480" y="-10" width="30" height="30" as="geometry" />
        </mxCell>
        <mxCell id="qB89F5kkttFrM0SvqKJG-4" value="7" style="ellipse;whiteSpace=wrap;html=1;" vertex="1" parent="1">
          <mxGeometry x="380" y="80" width="30" height="30" as="geometry" />
        </mxCell>
        <mxCell id="qB89F5kkttFrM0SvqKJG-7" value="3" style="ellipse;whiteSpace=wrap;html=1;" vertex="1" parent="1">
          <mxGeometry x="490" y="150" width="30" height="30" as="geometry" />
        </mxCell>
        <mxCell id="qB89F5kkttFrM0SvqKJG-10" style="edgeStyle=orthogonalEdgeStyle;rounded=0;orthogonalLoop=1;jettySize=auto;html=1;entryX=0.5;entryY=0;entryDx=0;entryDy=0;" edge="1" parent="1" source="qB89F5kkttFrM0SvqKJG-9" target="qB89F5kkttFrM0SvqKJG-7">
          <mxGeometry relative="1" as="geometry">
            <mxPoint x="505" y="140" as="targetPoint" />
            <Array as="points">
              <mxPoint x="545" y="130" />
              <mxPoint x="505" y="130" />
            </Array>
          </mxGeometry>
        </mxCell>
        <mxCell id="qB89F5kkttFrM0SvqKJG-12" style="edgeStyle=orthogonalEdgeStyle;rounded=0;orthogonalLoop=1;jettySize=auto;html=1;entryX=0.5;entryY=0;entryDx=0;entryDy=0;" edge="1" parent="1" source="qB89F5kkttFrM0SvqKJG-9" target="qB89F5kkttFrM0SvqKJG-11">
          <mxGeometry relative="1" as="geometry">
            <Array as="points">
              <mxPoint x="570" y="105" />
            </Array>
          </mxGeometry>
        </mxCell>
        <mxCell id="qB89F5kkttFrM0SvqKJG-9" value="+" style="ellipse;whiteSpace=wrap;html=1;" vertex="1" parent="1">
          <mxGeometry x="530" y="90" width="30" height="30" as="geometry" />
        </mxCell>
        <mxCell id="qB89F5kkttFrM0SvqKJG-11" value="5" style="ellipse;whiteSpace=wrap;html=1;" vertex="1" parent="1">
          <mxGeometry x="560" y="150" width="30" height="30" as="geometry" />
        </mxCell>
        <mxCell id="qB89F5kkttFrM0SvqKJG-15" value="(7 + 3) + 5" style="shape=note;whiteSpace=wrap;html=1;backgroundOutline=1;darkOpacity=0.05;labelBackgroundColor=#FFFF00;" vertex="1" parent="1">
          <mxGeometry x="350" y="310" width="80" height="90" as="geometry" />
        </mxCell>
        <mxCell id="qB89F5kkttFrM0SvqKJG-17" value="+7,+(3,5)" style="shape=note;whiteSpace=wrap;html=1;backgroundOutline=1;darkOpacity=0.05;labelBackgroundColor=#FFFF00;" vertex="1" parent="1">
          <mxGeometry x="440" y="310" width="80" height="90" as="geometry" />
        </mxCell>
        <mxCell id="qB89F5kkttFrM0SvqKJG-19" value="&amp;lt;script&amp;gt;&lt;br&gt;alert(7+3+5);&lt;br&gt;&amp;lt;/script&amp;gt;" style="shape=note;whiteSpace=wrap;html=1;backgroundOutline=1;darkOpacity=0.05;labelBackgroundColor=#FFFF00;" vertex="1" parent="1">
          <mxGeometry x="530" y="310" width="80" height="90" as="geometry" />
        </mxCell>
        <mxCell id="qB89F5kkttFrM0SvqKJG-21" value="15" style="shape=note;whiteSpace=wrap;html=1;backgroundOutline=1;darkOpacity=0.05;labelBackgroundColor=#FFFF00;" vertex="1" parent="1">
          <mxGeometry x="250" y="310" width="80" height="90" as="geometry" />
        </mxCell>
      </root>
    </mxGraphModel>
  </diagram>
</mxfile>
